# File created by Blade
# Date/Time:  Tue Jan 27 18:35:03 2015
# Frame Rate: 120.000 fps
#------------------------------------------------------
:FULLY-SPECIFIED
:DEGREES
1795
root -3.917933 31.466320 -2.374190 -14.672987 13.147968 -14.262333
Spine 12.646122 -13.095396 -5.379494
Head 14.520787 -3.110333 20.317390
LeftShoulder -13.318149 12.435544 18.283779
LeftArm 28.249866 -30.457434 -76.143720
LeftForeArm 120.064940 -0.000000 135.949294
LeftHand 10.177543 -0.000000 -3.227898
LeftHandThumb1 -26.253704 0.000000 33.147579
RightShoulder -16.851892 -10.065362 -4.174437
RightArm 2.319203 -36.381481 84.036825
RightForeArm -23.575214 -0.000000 29.443088
RightHand -13.595605 -0.000000 12.581026
RightHandThumb1 -24.326973 -0.000000 -32.862282
LeftUpLeg -2.361191 5.466609 8.986165
LeftLeg 35.511438 -0.000000 -0.000000
LeftFoot -32.309131 6.787993 -20.700574
LeftToeBase 12.466452 -0.000000 -0.000000
RightUpLeg -85.932914 1.280688 24.941573
RightLeg 85.949323 -0.000000 -0.000000
RightFoot -0.729927 -15.925576 15.489758
RightToeBase 0.051794 -0.000000 -0.000000
1796
root -3.921350 31.467836 -2.374399 -14.645462 13.196101 -14.234219
Spine 12.607223 -13.099350 -5.388730
Head 14.473115 -3.091759 20.302527
LeftShoulder -13.344363 12.458593 18.267392
LeftArm 28.231514 -30.373042 -76.127298
LeftForeArm 120.136694 -0.000000 136.010407
LeftHand 10.213215 -0.000000 -3.235466
LeftHandThumb1 -26.253704 0.000000 33.147579
RightShoulder -16.838484 -10.092731 -4.183079
RightArm 2.316832 -36.344206 84.039884
RightForeArm -23.567191 -0.000000 29.437562
RightHand -13.609318 0.000000 12.602283
RightHandThumb1 -24.326973 -0.000000 -32.862282
LeftUpLeg -2.376922 5.489266 8.968473
LeftLeg 35.479292 -0.000000 -0.000000
LeftFoot -32.306553 6.703879 -20.753607
LeftToeBase 12.522262 -0.000000 -0.000000
RightUpLeg -85.927125 1.249968 24.939427
RightLeg 85.918344 -0.000000 -0.000000
RightFoot -0.763765 -15.943405 15.530805
RightToeBase 0.039552 -0.000000 -0.000000
1797
root -3.926409 31.470115 -2.373449 -14.624697 13.242462 -14.209266
Spine 12.571472 -13.084243 -5.406689
Head 14.445201 -3.080556 20.304465
LeftShoulder -13.349208 12.505288 18.276028
LeftArm 28.226674 -30.282716 -76.136759
LeftForeArm 120.179348 -0.000000 136.090367
LeftHand 10.217465 0.000000 -3.267605
LeftHandThumb1 -26.253704 0.000000 33.147579
RightShoulder -16.829227 -10.121471 -4.181443
RightArm 2.308230 -36.335706 84.041905
RightForeArm -23.563304 -0.000000 29.423957
RightHand -13.583730 -0.000000 12.618566
RightHandThumb1 -24.326973 -0.000000 -32.862282
LeftUpLeg -2.380916 5.497507 8.954738
LeftLeg 35.437588 -0.000000 -0.000000
LeftFoot -32.304489 6.636082 -20.804870
LeftToeBase 12.517810 -0.000000 -0.000000
RightUpLeg -85.910338 1.229644 24.926176
RightLeg 85.898214 -0.000000 -0.000000
RightFoot -0.800960 -15.932172 15.570629
RightToeBase -0.019230 -0.000000 0.000000
1798
root -3.930585 31.473288 -2.373540 -14.619946 13.283983 -14.204493
Spine 12.560633 -13.074322 -5.384436
Head 14.370925 -3.110992 20.245239
LeftShoulder -13.346341 12.500059 18.250165
LeftArm 28.196723 -30.227092 -76.124103
LeftForeArm 120.152961 -0.000000 136.179852
LeftHand 10.229279 -0.000000 -3.201807
LeftHandThumb1 -26.253704 0.000000 33.147579
RightShoulder -16.810933 -10.156522 -4.190996
RightArm 2.319968 -36.285215 84.044528
RightForeArm -23.594546 0.000000 29.405726
RightHand -13.599580 -0.000000 12.606704
RightHandThumb1 -24.326973 -0.000000 -32.862282
LeftUpLeg -2.376279 5.510999 8.956288
LeftLeg 35.407811 -0.000000 -0.000000
LeftFoot -32.304184 6.550351 -20.920965
LeftToeBase 12.552619 -0.000000 -0.000000
RightUpLeg -85.878583 1.196181 24.943428
RightLeg 85.871756 -0.000000 -0.000000
RightFoot -0.823986 -15.945026 15.570933
RightToeBase -0.122344 -0.000000 0.000000
1799
root -3.936115 31.476938 -2.372647 -14.613888 13.324987 -14.198890
Spine 12.547563 -13.061834 -5.380974
Head 14.335425 -3.099272 20.250713
LeftShoulder -13.344515 12.511435 18.251728
LeftArm 28.180294 -30.153313 -76.145172
LeftForeArm 120.083534 -0.000000 136.269201
LeftHand 10.194392 -0.000000 -3.130853
LeftHandThumb1 -26.253704 0.000000 33.147579
RightShoulder -16.787036 -10.169565 -4.194965
RightArm 2.311405 -36.279818 84.048163
RightForeArm -23.565537 -0.000000 29.378739
RightHand -13.601782 -0.000000 12.605452
RightHandThumb1 -24.326973 -0.000000 -32.862282
LeftUpLeg -2.371697 5.503724 8.966393
LeftLeg 35.358736 -0.000000 -0.000000
LeftFoot -32.282110 6.518826 -20.909316
LeftToeBase 12.606494 -0.000000 -0.000000
RightUpLeg -85.849713 1.173203 24.955024
RightLeg 85.853572 -0.000000 -0.000000
RightFoot -0.841477 -15.962987 15.578865
RightToeBase -0.097634 -0.000000 0.000000
